<svg xmlns="http://www.w3.org/2000/svg" viewBox="63.488 73.72727272727273 1880.064 598.010101010101" version="1.1" style="max-height: 500px" width="1880.064" height="598.010101010101">
<path fill="#2A221E" d="m0 0h19l28 2 31 6 24 7 24 10 16 8 11 6 14 9 19 14 10 9 8 7 12 12 9 11 7 8 12 17 9 15 9 16 8 19 10 28 6 27 3 25v51l-4 30-6 25-13 35-15 29-13 19-9 12-7 8-9 11-8 7-11 11-13 10-10 8-6 5h-2l-3-4-2 3h3l-1 4-4 1-2-1 1 3h-2l-1 3-3-1v-2l-2 1-3 5-28 13-22 8-7-1-1 4-1 1h-6l-4-2h-2v2h3v2l-28 4-15 1h-49l-10-1v-6l-10 4-1 1h-7l-6-4v2l-9-2-9-3-1-3h-2v2l-7-1-3-2-6-2v-4l-1 3-5-1-9-4-19-9-16-9-15-10-11-8-15-13-10-9-9-9-7-8-10-12-13-18-12-21-8-16-10-24-6-20-6-29-3-29v-31l4-35 9-36 11-28 8-17 12-20 12-17 9-11 11-13 17-17 10-8 13-10 10-7 25-15 29-13 21-7 34-8 17-2zm155 518m-64 26-1 4 4-2-1-2z" transform="translate(368,93)" data-darkreader-inline-fill="" style="--darkreader-inline-fill: #2d2723;"/>
<path fill="#FBC64D" d="m0 0h19l28 2 31 6 24 7 24 10 16 8 11 6 14 9 19 14 10 9 8 7 12 12 9 11 7 8 12 17 9 15 9 16 8 19 10 28 6 27 3 25v51l-4 30-6 25-13 35-15 29-13 19-9 12-7 8-9 11-8 7-11 11-13 10-10 8-6 5h-2l-2-5-3-9-15-32-12-26-5-9-2 8-3 4-7-1-3-4-1-6 4-6h2l-2-5-5-6-4-3 1-4 6-7 3-9-1-11-6-9-6-4v-5l1-1 63-1 3-80 1-38 1-8 6-4h9l1-4-5-5-6 1-8 2-10-6 1-5 6-12 3-9 2-13v-19l-2-14-5-17-9-19-10-13-8-7-10-5-4-1h-17l-16 3-5 3h-2l-5-18-5-13-9-16-8-10-7-7-14-7-3-1h-22l-12 2-10 5-7 7-8 16-4 13-2 15v15l4 23 2 8-7 3-19 6-6 1-16-8-24-11-14-7-3-3-3-5-9 1-28 10-63 24-2 6-1 28-1 53v21h12l6 5 77 21 9 3 2 2-1 20-1 8 11 3 27 9 72 23 2 3v21l4 16 6 12 8 9-1 2-16 4-18 7-8 6-3 3-2 7v22l-12 20-13 23-8 14-14 24-5 11-12-5-19-9-16-9-15-10-11-8-15-13-10-9-9-9-7-8-10-12-13-18-12-21-8-16-10-24-6-20-6-29-3-29v-31l4-35 9-36 11-28 8-17 12-20 12-17 9-11 11-13 17-17 10-8 13-10 10-7 25-15 29-13 21-7 34-8 17-2z" transform="translate(368,93)" data-darkreader-inline-fill="" style="--darkreader-inline-fill: #775b1d;"/>
<path fill="#FDFDFD" d="m0 0h11l9 3 9 6 7 6 8 11 6 10 6 15 4 15 2 16v23l-3 15-4 11-6 10-5 5-6-2-16-9 2 5 8 5 9 4 1 4-2 3-7-1-4 1 1 3-1 30 5 1 3 2v19l-2 43h5v-15l3-51-6-2-4-4 1-25h4l7 3-1-8 5 2 33 16 8 5v2l-5 3-1 7 3 6 2 1h9l8 4-6-9-1-3v-11l3-5-1-1-5 5-5-2-14-8-2-1-6-20-2-12v-23l3-16 8-16 9-8 4-2h14l10 4 12 11 6 8 8 16 6 18 3 18v18l-4 17-4 10-5 7-8-1-8-4 2 4 14 7 3 3 7 2 3 3-1 22-1 10h-6l-3-2-2-6v9l6 1 4 3v29l-3 54-7-1-22-8-81-31-28-11-24-9-4-3 4-78 3-50 1-11h3l3 5-1 7-1 5v9l4 11 5 5 2 1h7l-6-3-6-7-2-7v-13l1-8-7-14-6-10-8-16-4-20v-23l4-18 5-12 7-9 8-6z" transform="translate(385,120)" data-darkreader-inline-fill="" style="--darkreader-inline-fill: #262625;"/>
<path fill="#FA9C0A" d="m0 0h60l2 10 15 107 14 99 4 31v5h5l2-21 17-119 8-57 7-48 2-7h60v265l-2 1h-27l-1-21v-231h-3l-2 9-6 44-12 86-16 112-2 1h-55l-2-4-21-147-13-94v-7h-5v251l-2 1h-27l-1-209v-56z" transform="translate(742,184)" data-darkreader-inline-fill="" style="--darkreader-inline-fill: #ba8025;"/>
<path fill="#FB9C0B" d="m0 0h14l16 2 18 6 13 7 13 12 7 8 8 14 5 13 4 16 2 24v70l-1 17-4 20-4 12-7 14-10 13-9 8-13 8-16 6-16 3h-29l-18-4-12-5-11-7-10-8-10-13-8-15-6-21-2-14-1-17v-59l1-22 3-19 5-15 9-17 8-10 8-8 14-9 12-5 16-4zm2 28-16 3-12 6-11 10-8 13-6 16-3 15-1 11v68l2 20 4 16 8 16 7 8 8 7 10 5 15 3 9 1 21-4 12-6 9-8 9-14 6-18 3-23v-73l-3-21-5-15-6-12-9-10-8-6-11-5-16-3z" transform="translate(1066,180)" data-darkreader-inline-fill="" style="--darkreader-inline-fill: #ba7f24;"/>
<path fill="#FA9C0B" d="m0 0h160l1 1v25l-1 1-127 1-1 91h126l1 2-1 25-125 1-1 91h130l1 1v26l-2 1h-160l-1-1z" transform="translate(1688,184)" data-darkreader-inline-fill="" style="--darkreader-inline-fill: #ba8025;"/>
<path fill="#FA9C0A" d="m0 0h34l3 9 13 48 22 80 18 65 13 48v2l4-1 19-68 8-30 17-62 10-36 8-30 7-24 1-1h34l-2 9-62 220-10 36-2 1h-59l-3-5-15-52-12-43-12-42-7-25-12-43-9-31-6-22z" transform="translate(1199,184)" data-darkreader-inline-fill="" style="--darkreader-inline-fill: #ba8025;"/>
<path fill="#FA9C0B" d="m0 0h168v27h-68v211h68v27l-2 1h-166l-1-1v-26l1-1h67v-210l-68-1v-26z" transform="translate(1453,184)" data-darkreader-inline-fill="" style="--darkreader-inline-fill: #ba8025;"/>
<path fill="#FEFEFE" d="m0 0h13l9 3 6 5 6 9 3 10v12l-3 11-6 12-4 5-10 7-10 4-7-1-8-6-6-10-3-13 1-14 4-11 9-12 9-7-6 2-8 6-7 10-4 10-1 5v15l3 10 4 6 5 5 1 3-5-1-9-7-6-11-2-7v-13l3-11 6-11 9-9 10-5z" transform="translate(191,230)" data-darkreader-inline-fill="" style="--darkreader-inline-fill: #262625;"/>
<path fill="#FBC44C" d="m0 0 3 1 11 23 8 18 7 14 4 10 3 3-4 3-26 12-22 8-5-1 4-4-1-7-8-26-9-29-2-10 27-9z" transform="translate(478,551)" data-darkreader-inline-fill="" style="--darkreader-inline-fill: #765a1c;"/>
<path fill="#FBC44C" d="m0 0 20 2 1 1 1 74 10 4 13-1 7-4 1-3 1-25 2 1 8 26 3 4v2h3v2l-28 4-15 1h-49l-10-1v-6l2-1 11-30 9-24 7-19z" transform="translate(374,566)" data-darkreader-inline-fill="" style="--darkreader-inline-fill: #765a1c;"/>
<path fill="#EF8A2A" d="m0 0h5l1 1-1 15-9 57-3 16-2 2-4-1-1-1 1-14 2-19-8 17-9 12-7 5h-9l-6-5-3-9v-12l4-26 7-36 1-1h6l-1 11-7 41-1 7v19l2 4 6-1 8-10 11-23 11-31z" transform="translate(942,508)" data-darkreader-inline-fill="" style="--darkreader-inline-fill: #a56628;"/>
<path fill="#EF8A29" d="m0 0h15l12 3 10 6 6 9v10l-3 6-9 8-14 5-10 2h-5l8 10 12 13 9 11 2 3v3l-4 1-6-4-12-14-10-11-3-4-6 32h-7l1-14 12-72zm6 6-2 5-4 26v6l11-1 12-4 8-5 4-4 1-8-4-7-6-4-11-3z" transform="translate(1851,510)" data-darkreader-inline-fill="" style="--darkreader-inline-fill: #a66728;"/>
<path fill="#FDD15C" d="m0 0 12 1 7 2v9l-3 11-3-3v-4l-3-5h-5l-3 3-2 8-1 7-3 9-7 19h-2l-3 11-4 9 3 6 7 1 13-1 2 1v-2l8-2 4-4 10 3 5 2 13-1 7-4 1-3 1-25 2 1 8 26 3 4v2h3v2l-28 4-15 1h-49l-10-1v-6l2-1 11-30 9-24 7-19z" transform="translate(374,566)" data-darkreader-inline-fill="" style="--darkreader-inline-fill: #71591b;"/>
<path fill="#EF8A29" d="m0 0h11l6 4 4 5 3 8v16l-3 16-7 19-6 11-7 8-7 4h-13l-7-6-4-11-1-7v-11l3-16 6-16 6-11 8-9zm4 6-8 4-6 8-7 14-5 17-1 8v11l2 10 4 6 1 1h7l7-5 7-11 7-17 4-16v-21l-4-6-5-3z" transform="translate(1742,508)" data-darkreader-inline-fill="" style="--darkreader-inline-fill: #a66728;"/>
<path fill="#EF8C2B" d="m0 0 4 1 2 7 6 65 1 18h-7l-1-2-3-35h-17l-6 13-10 23-2 2-5-1-1-2 18-43 10-23 9-20zm-2 22-7 15-3 6v4h14l-2-24z" transform="translate(1503,508)" data-darkreader-inline-fill="" style="--darkreader-inline-fill: #a56728;"/>
<path fill="#EF8A29" d="m0 0 5 2 6 60 1 6 14-36 12-30 2-2 5 1-1 7-10 27-17 43-6 13-5-1-2-12-6-64v-13z" transform="translate(1358,508)" data-darkreader-inline-fill="" style="--darkreader-inline-fill: #a66728;"/>
<path fill="#EF8D2B" d="m0 0h12l8 4 5 6v4h-5l-6-5-9-2-8 3-5 4-6 10-5 13-3 15v20l4 11 3 2h8l6-4 6-8 4-7h5l1 5-4 8-9 10-6 3-4 1h-7l-7-3-6-9-2-7-1-8v-10l3-19 5-14 7-12 9-8z" transform="translate(796,507)" data-darkreader-inline-fill="" style="--darkreader-inline-fill: #a56828;"/>
<path fill="#FBC44C" d="m0 0h5l1 4-6 16-10 23-11 26-7 17v5l-9-2-9-3-1-2h2l1-5 13-23 17-32 13-23z" transform="translate(346,559)" data-darkreader-inline-fill="" style="--darkreader-inline-fill: #765a1c;"/>
<path fill="#FDD15C" d="m0 0 9 1 7 3 1 2v21l4 16 6 12 8 9-1 2-16 4-18 7-8 6-3 3-2 7-1 14h-1l-1-12-2-6 3-9h2l2-4 3-5 5-3 17-6 2-2-1-9-7-9v-7h5l-2-5-2-8-3-10-2-6z" transform="translate(343,431)" data-darkreader-inline-fill="" style="--darkreader-inline-fill: #71591b;"/>
<path fill="#EF8A2A" d="m0 0 5 1-1 13-8 52-3 16-1 2h40l2 2v4l-21 1h-23l-6-1 3-22 10-63z" transform="translate(1032,509)" data-darkreader-inline-fill="" style="--darkreader-inline-fill: #a56628;"/>
<path fill="#EF8B2A" d="m0 0h51l1 4-4 2h-20l-1 15-10 60-2 5h-6l-1-3 3-16 9-58 1-3h-18l-3-1z" transform="translate(1597,511)" data-darkreader-inline-fill="" style="--darkreader-inline-fill: #a56728;"/>
<path fill="#EF8C2B" d="m0 0h51l1 4-2 2h-21l-2 17-9 55-2 8h-6l-1-4 12-75-18-1-3-2z" transform="translate(1145,511)" data-darkreader-inline-fill="" style="--darkreader-inline-fill: #a56728;"/>
<path fill="#FEFEFE" d="m0 0 5 1 1 4v101l-3 1-5-2-1-1v-25l2-65z" transform="translate(243,200)" data-darkreader-inline-fill="" style="--darkreader-inline-fill: #262625;"/>
<path fill="#FEFEFE" d="m0 0 9 1 30 9 59 18 3 1-1 4-1 1h-8l-59-18-31-9-2-2z" transform="translate(219,330)" data-darkreader-inline-fill="" style="--darkreader-inline-fill: #262625;"/>
<path fill="#EF8A2A" d="m0 0h6l1 3-12 76-2 9-4 2-3-1 1-14 12-74z" transform="translate(1272,510)" data-darkreader-inline-fill="" style="--darkreader-inline-fill: #a56628;"/>
<path fill="#FEFEFE" d="m0 0 8 1 43 12 34 10 14 4v4l-2 1h-8l-27-8-25-7-30-9-8-3z" transform="translate(190,340)" data-darkreader-inline-fill="" style="--darkreader-inline-fill: #262625;"/>
<path fill="#FEFEFE" d="m0 0 7 1 5 6 2 5v10l-4 8-4 4h-7l-5-4-3-7v-13l3-6 3-3z" transform="translate(467,470)" data-darkreader-inline-fill="" style="--darkreader-inline-fill: #ece4d6;"/>
<path fill="#FEFEFE" d="m0 0 10 2 3 2 5 16 6 11 4 5-1 5-5 8-4-2-9-14-5-12-4-16z" transform="translate(397,435)" data-darkreader-inline-fill="" style="--darkreader-inline-fill: #ece4d6;"/>
<path fill="#36281E" d="m0 0h4v2l-2 1-1 26 9 5v13l-3 53h-5v-25l1-18v-19l-7-3-1-3 1-30z" transform="translate(418,274)" data-darkreader-inline-fill="" style="--darkreader-inline-fill: #352c24;"/>
<path fill="#FCCF5B" d="m0 0h3l-1 6-10 17-12 21-14 24-2 4h-3l-2 4-1-5 3-5v-6l4-7v-6l3-4 5-2 5-9 3-3 1-3h2l2-6 3-1 2-9 4-4z" transform="translate(322,550)" data-darkreader-inline-fill="" style="--darkreader-inline-fill: #71591b;"/>
<path fill="#FCCE59" d="m0 0h5l1 4-6 16-7 15h-2l-1 3h-2l-2 8-2 5-3 2h-4l-4-3 2-5 13-25z" transform="translate(346,559)" data-darkreader-inline-fill="" style="--darkreader-inline-fill: #f4ce6f;"/>
<path fill="#58381F" d="m0 0 4 1 2 2h-4l5 1h3l2 4 2 1v-3l4 2 17 8 22 11 29 13 4 3v3l-6-1-29-13-28-13-23-10-7-4z" transform="translate(425,379)" data-darkreader-inline-fill="" style="--darkreader-inline-fill: #4c3827;"/>
<path fill="#FEFEFE" d="m0 0h23l21 3 23 6 10 5-3 1-13-4-21-4-11-1h-31l-20 3-14 4-7 3-3-1 5-4 11-5 21-5z" transform="translate(387,502)" data-darkreader-inline-fill="" style="--darkreader-inline-fill: #262625;"/>
<path fill="#FEFEFE" d="m0 0 4 2v94l-4-1-1-3v-91z" transform="translate(266,218)" data-darkreader-inline-fill="" style="--darkreader-inline-fill: #262625;"/>
<path fill="#FEFEFE" d="m0 0 3 1 1 2v93l-3 1-3-2v-50l1-44z" transform="translate(255,213)" data-darkreader-inline-fill="" style="--darkreader-inline-fill: #262625;"/>
<path fill="#FEFEFE" d="m0 0 5 1v90l-5-1z" transform="translate(308,237)" data-darkreader-inline-fill="" style="--darkreader-inline-fill: #262625;"/>
<path fill="#35271E" d="m0 0 3 2 2 10-6 7-2 4v12l4 9 7 8 5 5v2l3 1h7l2-1-1 4-3 2-7-1-8-6-10-9-5-8-1-4v-13l3-6 6-7-2-5-1-2z" transform="translate(390,324)" data-darkreader-inline-fill="" style="--darkreader-inline-fill: #d3cabb;"/>
<path fill="#FABE49" d="m0 0 2 1 8 26 3 4v2h3v2l-28 4h-12v-2l4-1-2-2 13-2 7-4 1-3z" transform="translate(428,614)" data-darkreader-inline-fill="" style="--darkreader-inline-fill: #f1c165;"/>
<path fill="#FEFEFE" d="m0 0 4 1v93l-4-1z" transform="translate(281,224)" data-darkreader-inline-fill="" style="--darkreader-inline-fill: #262625;"/>
<path fill="#FAC45C" d="m0 0h5l-3 2-12 4h-3v2l3 1 5 11-1 3h-9l-19-9v-3l10-4z" transform="translate(354,222)" data-darkreader-inline-fill="" style="--darkreader-inline-fill: #f2c56f;"/>
<path fill="#623D1F" d="m0 0 4 1-6 4-6 5-7 10-4 11-1 14 3 13 6 10 9 6-4 1-7-1 2-1-7-8-5-8-2-8v-15l4-13 7-11 8-7z" transform="translate(192,233)" data-darkreader-inline-fill="" style="--darkreader-inline-fill: #533c28;"/>
<path fill="#FEFEFE" d="m0 0 5 1-5 17-9 23-4 8h-5l1-8 9-25 6-14z" transform="translate(440,445)" data-darkreader-inline-fill="" style="--darkreader-inline-fill: #ece4d6;"/>
<path fill="#FEFEFE" d="m0 0 4 1v90l-4-1z" transform="translate(295,232)" data-darkreader-inline-fill="" style="--darkreader-inline-fill: #262625;"/>
<path fill="#FEFEFE" d="m0 0h12l20 2 17 4 13 5 1 2-9-1-25-5-14-1h-16l-1-4z" transform="translate(393,525)" data-darkreader-inline-fill="" style="--darkreader-inline-fill: #ece4d6;"/>
<path fill="#FEFEFE" d="m0 0 3 1v88l-3-1z" transform="translate(324,244)" data-darkreader-inline-fill="" style="--darkreader-inline-fill: #262625;"/>
<path fill="#FEFEFE" d="m0 0 5 1-1 4-9 2-36 5-10 1h-12v-1l31-6z" transform="translate(354,380)" data-darkreader-inline-fill="" style="--darkreader-inline-fill: #262625;"/>
<path fill="#FEFEFE" d="m0 0h2v31l-2 54h-3v-27l2-45z" transform="translate(344,253)" data-darkreader-inline-fill="" style="--darkreader-inline-fill: #262625;"/>
<path fill="#FEFEFE" d="m0 0 5 1 4 5v6l-4 6-7-1-3-4-1-6 4-6z" transform="translate(484,523)" data-darkreader-inline-fill="" style="--darkreader-inline-fill: #ece4d6;"/>
<path fill="#FEFEFE" d="m0 0h3l-1 9-7 18-4 1-2-1 1-7 8-18z" transform="translate(377,535)" data-darkreader-inline-fill="" style="--darkreader-inline-fill: #ece4d6;"/>
<path fill="#FEFEFE" d="m0 0h1v47l-4 1-1-1v-13l3-27z" transform="translate(422,583)" data-darkreader-inline-fill="" style="--darkreader-inline-fill: #ece4d6;"/>
<path fill="#FCC84F" d="m0 0h1v117l-2 1h-27l1-4 1 2 24 1v-3h2z" transform="translate(770,332)" data-darkreader-inline-fill="" style="--darkreader-inline-fill: #765a1c;"/>
<path fill="#442E1E" d="m0 0 2 1 2 7 25 11 20 8 7 4-3 1-26-11-20-8-8-4-1-2z" transform="translate(429,391)" data-darkreader-inline-fill="" style="--darkreader-inline-fill: #cec5b6;"/>
<path fill="#B96721" d="m0 0 8 1 8 3 11 9 10 13 5 11 3 7 1 6h-2l-4-10-8-16-11-12-10-7-11-4z" transform="translate(389,127)" data-darkreader-inline-fill="" style="--darkreader-inline-fill: #d69b63;"/>
<path fill="#FDD25D" d="m0 0h3l-1 5h-4v2l-5 2-4 8h-3l-3-7 1-5z" transform="translate(460,560)" data-darkreader-inline-fill="" style="--darkreader-inline-fill: #f6d171;"/>
<path fill="#412D1E" d="m0 0 5 2 4 7 1 4v8l-4 9h-3l2-5v-13l-4-9z" transform="translate(393,251)" data-darkreader-inline-fill="" style="--darkreader-inline-fill: #cfc6b7;"/>
<path fill="#FED660" d="m0 0h9l1 4h3l-1 10-4 1-1-6-7-6z" transform="translate(476,464)" data-darkreader-inline-fill="" style="--darkreader-inline-fill: #f7d473;"/>
<path fill="#4D331F" d="m0 0h1l2 9 6 5 1 3v35l-3 10-1-4 2-9v-27l-2-7-7-7v-7z" transform="translate(431,178)" data-darkreader-inline-fill="" style="--darkreader-inline-fill: #dabfa4;"/>
<path fill="#FDD55F" d="m0 0h7l2 1v2l-21 10h-2l1-3 5-1v-2h4l-1-3z" transform="translate(496,622)" data-darkreader-inline-fill="" style="--darkreader-inline-fill: #f6d373;"/>
<path fill="#FED660" d="m0 0 11 3h10l1 3h-6l2 6-6-2-12-8z" transform="translate(224,608)" data-darkreader-inline-fill="" style="--darkreader-inline-fill: #f7d473;"/>
<path fill="#FED660" d="m0 0 14 1v3l5-2 7 1 1 2-8 1-14-1v-2h-6z" transform="translate(231,562)" data-darkreader-inline-fill="" style="--darkreader-inline-fill: #f7d473;"/>
<path fill="#FCC951" d="m0 0 4 2 57 1v1h-59z" transform="translate(1273,446)" data-darkreader-inline-fill="" style="--darkreader-inline-fill: #f4ca6a;"/>
<path fill="#A55D21" d="m0 0 10 3 18 8 3 3-5-1-24-10-3-2z" transform="translate(454,409)" data-darkreader-inline-fill="" style="--darkreader-inline-fill: #d7a06e;"/>
<path fill="#FDD35D" d="m0 0 9 1 2 4v3l-4 2-5-5z" transform="translate(264,406)" data-darkreader-inline-fill="" style="--darkreader-inline-fill: #f6d271;"/>
<path fill="#49311E" d="m0 0h3v9l2 5-2 1-5-5-1-6 1-3z" transform="translate(397,346)" data-darkreader-inline-fill="" style="--darkreader-inline-fill: #dbc0a6;"/>
<path fill="#E07A22" d="m0 0 4 4 5 11 3 7 1 6h-2l-4-10-8-17z" transform="translate(422,149)" data-darkreader-inline-fill="" style="--darkreader-inline-fill: #d68f4e;"/>
<path fill="#DB7722" d="m0 0 3 1v29l-3-1z" transform="translate(521,406)" data-darkreader-inline-fill="" style="--darkreader-inline-fill: #d38e50;"/>
<path fill="#FDD55F" d="m0 0 8 4v6h-5l-3-4-1-5z" transform="translate(240,367)" data-darkreader-inline-fill="" style="--darkreader-inline-fill: #f6d373;"/>
<path fill="#603C1F" d="m0 0 4 2 3 5v8l-3 6-1-4v-9z" transform="translate(495,291)" data-darkreader-inline-fill="" style="--darkreader-inline-fill: #dbb898;"/>
<path fill="#FED660" d="m0 0 2 1-10 9-10 8-5 3 1-3 6-5 2-3 7-4h2l2-4z" transform="translate(566,580)" data-darkreader-inline-fill="" style="--darkreader-inline-fill: #f7d473;"/>
<path fill="#FDD662" d="m0 0h3l3 3h6l-3 3-8 3h-3v-2h2z" transform="translate(467,632)" data-darkreader-inline-fill="" style="--darkreader-inline-fill: #f6d474;"/>
<path fill="#FDD662" d="m0 0h4v4l3 1-3 2h-6l-2-3v-3z" transform="translate(433,643)" data-darkreader-inline-fill="" style="--darkreader-inline-fill: #f6d474;"/>
<path fill="#FEFEFE" d="m0 0 4 1-2 9-6 1 1-4z" transform="translate(212,324)" data-darkreader-inline-fill="" style="--darkreader-inline-fill: #ece4d6;"/>
<path fill="#FED660" d="m0 0h4l7 8-1 2-4-1-5-5z" transform="translate(204,373)" data-darkreader-inline-fill="" style="--darkreader-inline-fill: #f7d473;"/>
<path fill="#ED8023" d="m0 0h1l1 15 1 3 8 2v1l-8 1-3-1-1-2z" transform="translate(522,339)" data-darkreader-inline-fill="" style="--darkreader-inline-fill: #e0934e;"/>
<path fill="#FED660" d="m0 0h13l-2 4-4 2-7-5z" transform="translate(206,597)" data-darkreader-inline-fill="" style="--darkreader-inline-fill: #f7d473;"/>
<path fill="#ED8023" d="m0 0 5 4 8 14 1 5-4-5-9-15z" transform="translate(508,207)" data-darkreader-inline-fill="" style="--darkreader-inline-fill: #e0934e;"/>
<path fill="#FDD35D" d="m0 0h2v5l-4 6-3-1 1-7z" transform="translate(320,630)" data-darkreader-inline-fill="" style="--darkreader-inline-fill: #f6d271;"/>
<path fill="#FED660" d="m0 0 3 1 14 1v2l-12 1-7-3z" transform="translate(209,578)" data-darkreader-inline-fill="" style="--darkreader-inline-fill: #f7d473;"/>
<path fill="#FED660" d="m0 0 2 1-6 7-7 5 1-7 5-3z" transform="translate(585,561)" data-darkreader-inline-fill="" style="--darkreader-inline-fill: #f7d473;"/>
<path fill="#9D5A21" d="m0 0h1l2 9 6 5 1 6-2 2-2-7-7-7v-7z" transform="translate(431,178)" data-darkreader-inline-fill="" style="--darkreader-inline-fill: #d7a473;"/>
<path fill="#F8B543" d="m0 0 5 5 4 3v6h-2l-6-9-3-2v-2z" transform="translate(475,465)" data-darkreader-inline-fill="" style="--darkreader-inline-fill: #eeba61;"/>
<path fill="#FDD55F" d="m0 0 16 1v1l-14 2h-11v-1l8-1z" transform="translate(414,649)" data-darkreader-inline-fill="" style="--darkreader-inline-fill: #f6d373;"/>
<path fill="#FED660" d="m0 0 7 1 3 2v3h-3l-1 2-6-7z" transform="translate(160,552)" data-darkreader-inline-fill="" style="--darkreader-inline-fill: #f7d473;"/>
<path fill="#ED8023" d="m0 0 9 1 11 7 3 5-4-2v-2l-5-2-10-5z" transform="translate(483,192)" data-darkreader-inline-fill="" style="--darkreader-inline-fill: #e0934e;"/>
<path fill="#995720" d="m0 0 8 1 8 3 4 3v2l-4-1-9-5-7-2z" transform="translate(389,127)" data-darkreader-inline-fill="" style="--darkreader-inline-fill: #d8a576;"/>
<path fill="#FAC251" d="m0 0 2 1 3 9-1 5-3-3-1-4z" transform="translate(428,614)" data-darkreader-inline-fill="" style="--darkreader-inline-fill: #f1c46a;"/>
<path fill="#FAC452" d="m0 0 9 9 2 1v2h-2v2h-2l-4-7-4-4z" transform="translate(477,509)" data-darkreader-inline-fill="" style="--darkreader-inline-fill: #f1c66a;"/>
<path fill="#FEFEFE" d="m0 0h3l-1 7-3 3h-2l1-6z" transform="translate(183,335)" data-darkreader-inline-fill="" style="--darkreader-inline-fill: #ece4d6;"/>
<path fill="#FED660" d="m0 0h1l2 7v3l-2 4h-2v-11z" transform="translate(536,445)" data-darkreader-inline-fill="" style="--darkreader-inline-fill: #f7d473;"/>
<path fill="#FED660" d="m0 0h1v19l-3-1 1-9v-8z" transform="translate(390,592)" data-darkreader-inline-fill="" style="--darkreader-inline-fill: #f7d473;"/>
<path fill="#ED8023" d="m0 0 10 6-4 1-7-1 2-1-3-4z" transform="translate(180,301)" data-darkreader-inline-fill="" style="--darkreader-inline-fill: #e0934e;"/>
<path fill="#F7B040" d="m0 0 2 1-5 12-2-4 2-6z" transform="translate(337,594)" data-darkreader-inline-fill="" style="--darkreader-inline-fill: #ecb65f;"/>
<path fill="#FAC554" d="m0 0 3 1 3 7-7-2-1-3z" transform="translate(478,551)" data-darkreader-inline-fill="" style="--darkreader-inline-fill: #f2c76c;"/>
<path fill="#FED660" d="m0 0 6 1-1 6h-4z" transform="translate(329,427)" data-darkreader-inline-fill="" style="--darkreader-inline-fill: #f7d473;"/>
<path fill="#FDD55F" d="m0 0 6 1 3 1-1 5-5-3z" transform="translate(182,576)" data-darkreader-inline-fill="" style="--darkreader-inline-fill: #f6d373;"/>
<path fill="#FED660" d="m0 0v3l-7 8-2-1 4-6z" transform="translate(601,542)" data-darkreader-inline-fill="" style="--darkreader-inline-fill: #f7d473;"/>
<path fill="#F8B744" d="m0 0 2 1-6 11-1-3 1-5h2z" transform="translate(299,594)" data-darkreader-inline-fill="" style="--darkreader-inline-fill: #eebc62;"/>
<path fill="#C16B21" d="m0 0 3 1 3 7 1 6h-2l-4-10z" transform="translate(428,163)" data-darkreader-inline-fill="" style="--darkreader-inline-fill: #d5985e;"/>
<path fill="#B29E8E" d="m0 0h3v2h-3z" transform="translate(335,650)" data-darkreader-inline-fill="" style="--darkreader-inline-fill: #b2a897;"/>
<path fill="#FEFEFE" d="m0 0" transform="translate(523,614)" data-darkreader-inline-fill="" style="--darkreader-inline-fill: #ece4d6;"/>
</svg>